<mxfile host="app.diagrams.net" modified="2022-04-21T04:53:57.325Z" agent="5.0 (Windows NT 10.0; Win64; x64) AppleWebKit/537.36 (KHTML, like Gecko) Chrome/100.0.4896.75 Safari/537.36" etag="ADw_YVw8A7eY9x5_tXp2" version="17.4.5" type="github">
  <diagram id="wFE0QG_FPsp0jaGvCLVb" name="Page-1">
    <mxGraphModel dx="1038" dy="551" grid="1" gridSize="10" guides="1" tooltips="1" connect="1" arrows="1" fold="1" page="1" pageScale="1" pageWidth="850" pageHeight="1100" math="0" shadow="0">
      <root>
        <mxCell id="0" />
        <mxCell id="1" parent="0" />
        <mxCell id="k9zxwndr40Z3x8ybEwwm-1" value="" style="rounded=0;whiteSpace=wrap;html=1;" parent="1" vertex="1">
          <mxGeometry x="40" y="70" width="780" height="130" as="geometry" />
        </mxCell>
        <mxCell id="k9zxwndr40Z3x8ybEwwm-3" value="" style="rounded=0;whiteSpace=wrap;html=1;" parent="1" vertex="1">
          <mxGeometry x="40" y="220" width="780" height="260" as="geometry" />
        </mxCell>
        <mxCell id="k9zxwndr40Z3x8ybEwwm-4" value="" style="rounded=0;whiteSpace=wrap;html=1;" parent="1" vertex="1">
          <mxGeometry x="40" y="500" width="780" height="170" as="geometry" />
        </mxCell>
        <mxCell id="k9zxwndr40Z3x8ybEwwm-5" value="" style="rounded=0;whiteSpace=wrap;html=1;" parent="1" vertex="1">
          <mxGeometry x="45" y="690" width="795" height="180" as="geometry" />
        </mxCell>
        <mxCell id="k9zxwndr40Z3x8ybEwwm-6" value="" style="rounded=0;whiteSpace=wrap;html=1;" parent="1" vertex="1">
          <mxGeometry x="52.5" y="900" width="787.5" height="150" as="geometry" />
        </mxCell>
        <mxCell id="k9zxwndr40Z3x8ybEwwm-7" value="&lt;font style=&quot;font-size: 24px&quot; face=&quot;Georgia&quot;&gt;成本运营架构图&lt;/font&gt;" style="text;html=1;resizable=0;autosize=1;align=center;verticalAlign=middle;points=[];fillColor=none;strokeColor=none;rounded=0;" parent="1" vertex="1">
          <mxGeometry x="320" y="30" width="180" height="20" as="geometry" />
        </mxCell>
        <mxCell id="k9zxwndr40Z3x8ybEwwm-8" value="客户端" style="text;html=1;resizable=0;autosize=1;align=center;verticalAlign=middle;points=[];fillColor=#ffe6cc;strokeColor=#d79b00;rounded=0;fontFamily=Georgia;fontSize=24;" parent="1" vertex="1">
          <mxGeometry x="50" y="120" width="90" height="30" as="geometry" />
        </mxCell>
        <mxCell id="k9zxwndr40Z3x8ybEwwm-9" value="接入层" style="text;html=1;resizable=0;autosize=1;align=center;verticalAlign=middle;points=[];fillColor=#ffe6cc;strokeColor=#d79b00;rounded=0;fontFamily=Georgia;fontSize=24;" parent="1" vertex="1">
          <mxGeometry x="50" y="270" width="90" height="30" as="geometry" />
        </mxCell>
        <mxCell id="k9zxwndr40Z3x8ybEwwm-10" value="网关层" style="text;html=1;resizable=0;autosize=1;align=center;verticalAlign=middle;points=[];fillColor=#ffe6cc;strokeColor=#d79b00;rounded=0;fontFamily=Georgia;fontSize=24;" parent="1" vertex="1">
          <mxGeometry x="50" y="550" width="90" height="30" as="geometry" />
        </mxCell>
        <mxCell id="k9zxwndr40Z3x8ybEwwm-11" value="服务层" style="text;html=1;resizable=0;autosize=1;align=center;verticalAlign=middle;points=[];fillColor=#ffe6cc;strokeColor=#d79b00;rounded=0;fontFamily=Georgia;fontSize=24;" parent="1" vertex="1">
          <mxGeometry x="60" y="740" width="90" height="30" as="geometry" />
        </mxCell>
        <mxCell id="k9zxwndr40Z3x8ybEwwm-12" value="数据同步层" style="text;html=1;resizable=0;autosize=1;align=center;verticalAlign=middle;points=[];fillColor=#ffe6cc;strokeColor=#d79b00;rounded=0;fontFamily=Georgia;fontSize=24;" parent="1" vertex="1">
          <mxGeometry x="5" y="940" width="140" height="30" as="geometry" />
        </mxCell>
        <mxCell id="k9zxwndr40Z3x8ybEwwm-13" value="" style="rounded=0;whiteSpace=wrap;html=1;" parent="1" vertex="1">
          <mxGeometry x="52.5" y="1100" width="787.5" height="170" as="geometry" />
        </mxCell>
        <mxCell id="k9zxwndr40Z3x8ybEwwm-14" value="" style="rounded=0;whiteSpace=wrap;html=1;" parent="1" vertex="1">
          <mxGeometry x="40" y="1320" width="820" height="250" as="geometry" />
        </mxCell>
        <mxCell id="k9zxwndr40Z3x8ybEwwm-15" value="服务治理" style="text;html=1;resizable=0;autosize=1;align=center;verticalAlign=middle;points=[];fillColor=#ffe6cc;strokeColor=#d79b00;rounded=0;fontFamily=Georgia;fontSize=24;" parent="1" vertex="1">
          <mxGeometry x="20" y="1150" width="110" height="30" as="geometry" />
        </mxCell>
        <mxCell id="k9zxwndr40Z3x8ybEwwm-16" value="数据处理" style="text;html=1;resizable=0;autosize=1;align=center;verticalAlign=middle;points=[];fillColor=#ffe6cc;strokeColor=#d79b00;rounded=0;fontFamily=Georgia;fontSize=24;" parent="1" vertex="1">
          <mxGeometry x="20" y="1370" width="110" height="30" as="geometry" />
        </mxCell>
        <mxCell id="k9zxwndr40Z3x8ybEwwm-17" value="" style="rounded=0;whiteSpace=wrap;html=1;" parent="1" vertex="1">
          <mxGeometry x="51.25" y="1600" width="808.75" height="200" as="geometry" />
        </mxCell>
        <mxCell id="k9zxwndr40Z3x8ybEwwm-18" value="第三方接口" style="text;html=1;resizable=0;autosize=1;align=center;verticalAlign=middle;points=[];fillColor=#ffe6cc;strokeColor=#d79b00;rounded=0;fontFamily=Georgia;fontSize=24;" parent="1" vertex="1">
          <mxGeometry x="28.75" y="1650" width="140" height="30" as="geometry" />
        </mxCell>
        <mxCell id="k9zxwndr40Z3x8ybEwwm-20" value="" style="rounded=0;whiteSpace=wrap;html=1;fontFamily=Georgia;fontSize=24;" parent="1" vertex="1">
          <mxGeometry x="150" y="110" width="120" height="60" as="geometry" />
        </mxCell>
        <mxCell id="k9zxwndr40Z3x8ybEwwm-21" value="" style="rounded=0;whiteSpace=wrap;html=1;fontFamily=Georgia;fontSize=24;" parent="1" vertex="1">
          <mxGeometry x="280" y="110" width="120" height="60" as="geometry" />
        </mxCell>
        <mxCell id="k9zxwndr40Z3x8ybEwwm-22" value="小程序" style="rounded=0;whiteSpace=wrap;html=1;fontFamily=Georgia;fontSize=24;" parent="1" vertex="1">
          <mxGeometry x="420" y="110" width="120" height="60" as="geometry" />
        </mxCell>
        <mxCell id="k9zxwndr40Z3x8ybEwwm-23" value="Android" style="rounded=0;whiteSpace=wrap;html=1;fontFamily=Georgia;fontSize=24;" parent="1" vertex="1">
          <mxGeometry x="560" y="110" width="120" height="60" as="geometry" />
        </mxCell>
        <mxCell id="k9zxwndr40Z3x8ybEwwm-24" value="IOS" style="rounded=0;whiteSpace=wrap;html=1;fontFamily=Georgia;fontSize=24;" parent="1" vertex="1">
          <mxGeometry x="695" y="110" width="120" height="60" as="geometry" />
        </mxCell>
        <mxCell id="k9zxwndr40Z3x8ybEwwm-25" value="" style="rounded=0;whiteSpace=wrap;html=1;fontFamily=Georgia;fontSize=24;" parent="1" vertex="1">
          <mxGeometry x="150" y="110" width="120" height="60" as="geometry" />
        </mxCell>
        <mxCell id="k9zxwndr40Z3x8ybEwwm-26" value="" style="rounded=0;whiteSpace=wrap;html=1;fontFamily=Georgia;fontSize=24;" parent="1" vertex="1">
          <mxGeometry x="280" y="110" width="120" height="60" as="geometry" />
        </mxCell>
        <mxCell id="k9zxwndr40Z3x8ybEwwm-27" value="PC" style="rounded=0;whiteSpace=wrap;html=1;fontFamily=Georgia;fontSize=24;" parent="1" vertex="1">
          <mxGeometry x="150" y="110" width="120" height="60" as="geometry" />
        </mxCell>
        <mxCell id="k9zxwndr40Z3x8ybEwwm-28" value="H5" style="rounded=0;whiteSpace=wrap;html=1;fontFamily=Georgia;fontSize=24;" parent="1" vertex="1">
          <mxGeometry x="280" y="110" width="120" height="60" as="geometry" />
        </mxCell>
        <mxCell id="k9zxwndr40Z3x8ybEwwm-29" value="&lt;span&gt;Keepalived&lt;/span&gt;" style="rounded=0;whiteSpace=wrap;html=1;fontFamily=Georgia;fontSize=24;" parent="1" vertex="1">
          <mxGeometry x="417.5" y="260" width="120" height="60" as="geometry" />
        </mxCell>
        <mxCell id="k9zxwndr40Z3x8ybEwwm-30" value="&lt;span&gt;Keepalived&lt;/span&gt;" style="rounded=0;whiteSpace=wrap;html=1;fontFamily=Georgia;fontSize=24;" parent="1" vertex="1">
          <mxGeometry x="557.5" y="260" width="120" height="60" as="geometry" />
        </mxCell>
        <mxCell id="k9zxwndr40Z3x8ybEwwm-31" value="&lt;span&gt;Keepalived&lt;/span&gt;" style="rounded=0;whiteSpace=wrap;html=1;fontFamily=Georgia;fontSize=24;" parent="1" vertex="1">
          <mxGeometry x="692.5" y="260" width="120" height="60" as="geometry" />
        </mxCell>
        <mxCell id="k9zxwndr40Z3x8ybEwwm-32" value="心跳切换VIP" style="rounded=0;whiteSpace=wrap;html=1;fontFamily=Georgia;fontSize=24;" parent="1" vertex="1">
          <mxGeometry x="147.5" y="260" width="120" height="60" as="geometry" />
        </mxCell>
        <mxCell id="k9zxwndr40Z3x8ybEwwm-33" value="Keepalived" style="rounded=0;whiteSpace=wrap;html=1;fontFamily=Georgia;fontSize=24;" parent="1" vertex="1">
          <mxGeometry x="277.5" y="260" width="120" height="60" as="geometry" />
        </mxCell>
        <mxCell id="k9zxwndr40Z3x8ybEwwm-34" value="&lt;span&gt;Gateway&lt;/span&gt;&lt;br&gt;Router" style="rounded=0;whiteSpace=wrap;html=1;fontFamily=Georgia;fontSize=24;" parent="1" vertex="1">
          <mxGeometry x="417.5" y="535" width="120" height="60" as="geometry" />
        </mxCell>
        <mxCell id="k9zxwndr40Z3x8ybEwwm-35" value="GateWay&lt;br&gt;鉴权" style="rounded=0;whiteSpace=wrap;html=1;fontFamily=Georgia;fontSize=24;" parent="1" vertex="1">
          <mxGeometry x="557.5" y="535" width="120" height="60" as="geometry" />
        </mxCell>
        <mxCell id="k9zxwndr40Z3x8ybEwwm-36" value="&lt;span&gt;GateWay&lt;/span&gt;&lt;br&gt;限流" style="rounded=0;whiteSpace=wrap;html=1;fontFamily=Georgia;fontSize=24;" parent="1" vertex="1">
          <mxGeometry x="692.5" y="535" width="120" height="60" as="geometry" />
        </mxCell>
        <mxCell id="k9zxwndr40Z3x8ybEwwm-37" value="网关应用" style="rounded=0;whiteSpace=wrap;html=1;fontFamily=Georgia;fontSize=24;" parent="1" vertex="1">
          <mxGeometry x="147.5" y="535" width="120" height="60" as="geometry" />
        </mxCell>
        <mxCell id="k9zxwndr40Z3x8ybEwwm-38" value="Gateway&lt;br&gt;Filter" style="rounded=0;whiteSpace=wrap;html=1;fontFamily=Georgia;fontSize=24;" parent="1" vertex="1">
          <mxGeometry x="277.5" y="535" width="120" height="60" as="geometry" />
        </mxCell>
        <mxCell id="k9zxwndr40Z3x8ybEwwm-39" value="OMS服务" style="rounded=0;whiteSpace=wrap;html=1;fontFamily=Georgia;fontSize=24;" parent="1" vertex="1">
          <mxGeometry x="425" y="725" width="120" height="60" as="geometry" />
        </mxCell>
        <mxCell id="k9zxwndr40Z3x8ybEwwm-40" value="数据规则引擎服务" style="rounded=0;whiteSpace=wrap;html=1;fontFamily=Georgia;fontSize=24;" parent="1" vertex="1">
          <mxGeometry x="565" y="725" width="120" height="60" as="geometry" />
        </mxCell>
        <mxCell id="k9zxwndr40Z3x8ybEwwm-41" value="供应商平台服务" style="rounded=0;whiteSpace=wrap;html=1;fontFamily=Georgia;fontSize=24;" parent="1" vertex="1">
          <mxGeometry x="700" y="725" width="120" height="60" as="geometry" />
        </mxCell>
        <mxCell id="k9zxwndr40Z3x8ybEwwm-44" value="springCloud&amp;nbsp;Alibaba技术栈" style="rounded=0;whiteSpace=wrap;html=1;fontFamily=Georgia;fontSize=24;" parent="1" vertex="1">
          <mxGeometry x="160" y="800" width="660" height="60" as="geometry" />
        </mxCell>
        <mxCell id="k9zxwndr40Z3x8ybEwwm-45" value="CMDB服务" style="rounded=0;whiteSpace=wrap;html=1;fontFamily=Georgia;fontSize=24;" parent="1" vertex="1">
          <mxGeometry x="285" y="725" width="120" height="60" as="geometry" />
        </mxCell>
        <mxCell id="k9zxwndr40Z3x8ybEwwm-46" value="&lt;span&gt;LVS集群&lt;/span&gt;" style="rounded=0;whiteSpace=wrap;html=1;fontFamily=Georgia;fontSize=24;" parent="1" vertex="1">
          <mxGeometry x="415" y="340" width="120" height="60" as="geometry" />
        </mxCell>
        <mxCell id="k9zxwndr40Z3x8ybEwwm-47" value="&lt;span&gt;LVS集群&lt;/span&gt;" style="rounded=0;whiteSpace=wrap;html=1;fontFamily=Georgia;fontSize=24;" parent="1" vertex="1">
          <mxGeometry x="555" y="340" width="120" height="60" as="geometry" />
        </mxCell>
        <mxCell id="k9zxwndr40Z3x8ybEwwm-48" value="&lt;span&gt;LVS集群&lt;/span&gt;" style="rounded=0;whiteSpace=wrap;html=1;fontFamily=Georgia;fontSize=24;" parent="1" vertex="1">
          <mxGeometry x="690" y="340" width="120" height="60" as="geometry" />
        </mxCell>
        <mxCell id="k9zxwndr40Z3x8ybEwwm-49" value="四层负载" style="rounded=0;whiteSpace=wrap;html=1;fontFamily=Georgia;fontSize=24;" parent="1" vertex="1">
          <mxGeometry x="145" y="340" width="120" height="60" as="geometry" />
        </mxCell>
        <mxCell id="k9zxwndr40Z3x8ybEwwm-50" value="" style="rounded=0;whiteSpace=wrap;html=1;fontFamily=Georgia;fontSize=24;" parent="1" vertex="1">
          <mxGeometry x="275" y="340" width="120" height="60" as="geometry" />
        </mxCell>
        <mxCell id="k9zxwndr40Z3x8ybEwwm-51" value="四层负载" style="rounded=0;whiteSpace=wrap;html=1;fontFamily=Georgia;fontSize=24;" parent="1" vertex="1">
          <mxGeometry x="145" y="340" width="120" height="60" as="geometry" />
        </mxCell>
        <mxCell id="k9zxwndr40Z3x8ybEwwm-52" value="LVS集群" style="rounded=0;whiteSpace=wrap;html=1;fontFamily=Georgia;fontSize=24;" parent="1" vertex="1">
          <mxGeometry x="275" y="340" width="120" height="60" as="geometry" />
        </mxCell>
        <mxCell id="k9zxwndr40Z3x8ybEwwm-53" value="&lt;span&gt;Nginx集群&lt;/span&gt;" style="rounded=0;whiteSpace=wrap;html=1;fontFamily=Georgia;fontSize=24;" parent="1" vertex="1">
          <mxGeometry x="415" y="410" width="120" height="60" as="geometry" />
        </mxCell>
        <mxCell id="k9zxwndr40Z3x8ybEwwm-54" value="&lt;span&gt;Nginx集群&lt;/span&gt;" style="rounded=0;whiteSpace=wrap;html=1;fontFamily=Georgia;fontSize=24;" parent="1" vertex="1">
          <mxGeometry x="555" y="410" width="120" height="60" as="geometry" />
        </mxCell>
        <mxCell id="k9zxwndr40Z3x8ybEwwm-55" value="&lt;span&gt;Nginx集群&lt;/span&gt;" style="rounded=0;whiteSpace=wrap;html=1;fontFamily=Georgia;fontSize=24;" parent="1" vertex="1">
          <mxGeometry x="690" y="410" width="120" height="60" as="geometry" />
        </mxCell>
        <mxCell id="k9zxwndr40Z3x8ybEwwm-56" value="七层负载" style="rounded=0;whiteSpace=wrap;html=1;fontFamily=Georgia;fontSize=24;" parent="1" vertex="1">
          <mxGeometry x="145" y="410" width="120" height="60" as="geometry" />
        </mxCell>
        <mxCell id="k9zxwndr40Z3x8ybEwwm-57" value="Nginx集群" style="rounded=0;whiteSpace=wrap;html=1;fontFamily=Georgia;fontSize=24;" parent="1" vertex="1">
          <mxGeometry x="275" y="410" width="120" height="60" as="geometry" />
        </mxCell>
        <mxCell id="k9zxwndr40Z3x8ybEwwm-58" value="水平扩展" style="rounded=0;whiteSpace=wrap;html=1;fontFamily=Georgia;fontSize=24;" parent="1" vertex="1">
          <mxGeometry x="145" y="610" width="665" height="50" as="geometry" />
        </mxCell>
        <mxCell id="k9zxwndr40Z3x8ybEwwm-59" value="卧龙服务" style="rounded=0;whiteSpace=wrap;html=1;fontFamily=Georgia;fontSize=24;" parent="1" vertex="1">
          <mxGeometry x="155" y="725" width="120" height="60" as="geometry" />
        </mxCell>
        <mxCell id="k9zxwndr40Z3x8ybEwwm-60" value="ES搜索数据同步" style="rounded=0;whiteSpace=wrap;html=1;fontFamily=Georgia;fontSize=24;" parent="1" vertex="1">
          <mxGeometry x="160" y="910" width="120" height="60" as="geometry" />
        </mxCell>
        <mxCell id="k9zxwndr40Z3x8ybEwwm-61" value="热门数据同步" style="rounded=0;whiteSpace=wrap;html=1;fontFamily=Georgia;fontSize=24;" parent="1" vertex="1">
          <mxGeometry x="295" y="910" width="120" height="60" as="geometry" />
        </mxCell>
        <mxCell id="k9zxwndr40Z3x8ybEwwm-62" value="缓存数据同步" style="rounded=0;whiteSpace=wrap;html=1;fontFamily=Georgia;fontSize=24;" parent="1" vertex="1">
          <mxGeometry x="430" y="910" width="120" height="60" as="geometry" />
        </mxCell>
        <mxCell id="k9zxwndr40Z3x8ybEwwm-63" value="静态页数据同步" style="rounded=0;whiteSpace=wrap;html=1;fontFamily=Georgia;fontSize=24;" parent="1" vertex="1">
          <mxGeometry x="565" y="910" width="120" height="60" as="geometry" />
        </mxCell>
        <mxCell id="k9zxwndr40Z3x8ybEwwm-64" value="Proxy缓存同步" style="rounded=0;whiteSpace=wrap;html=1;fontFamily=Georgia;fontSize=24;" parent="1" vertex="1">
          <mxGeometry x="705" y="910" width="120" height="60" as="geometry" />
        </mxCell>
        <mxCell id="k9zxwndr40Z3x8ybEwwm-65" value="Cancel（阿里巴巴）" style="rounded=0;whiteSpace=wrap;html=1;fontFamily=Georgia;fontSize=24;" parent="1" vertex="1">
          <mxGeometry x="160" y="980" width="660" height="60" as="geometry" />
        </mxCell>
        <mxCell id="k9zxwndr40Z3x8ybEwwm-66" value="服务注册" style="rounded=0;whiteSpace=wrap;html=1;fontFamily=Georgia;fontSize=24;" parent="1" vertex="1">
          <mxGeometry x="157.5" y="1110" width="120" height="60" as="geometry" />
        </mxCell>
        <mxCell id="k9zxwndr40Z3x8ybEwwm-67" value="服务发现" style="rounded=0;whiteSpace=wrap;html=1;fontFamily=Georgia;fontSize=24;" parent="1" vertex="1">
          <mxGeometry x="295" y="1110" width="120" height="60" as="geometry" />
        </mxCell>
        <mxCell id="k9zxwndr40Z3x8ybEwwm-68" value="统一配置" style="rounded=0;whiteSpace=wrap;html=1;fontFamily=Georgia;fontSize=24;" parent="1" vertex="1">
          <mxGeometry x="430" y="1110" width="120" height="60" as="geometry" />
        </mxCell>
        <mxCell id="k9zxwndr40Z3x8ybEwwm-69" value="服务熔断" style="rounded=0;whiteSpace=wrap;html=1;fontFamily=Georgia;fontSize=24;" parent="1" vertex="1">
          <mxGeometry x="565" y="1110" width="120" height="60" as="geometry" />
        </mxCell>
        <mxCell id="k9zxwndr40Z3x8ybEwwm-70" value="服务限流" style="rounded=0;whiteSpace=wrap;html=1;fontFamily=Georgia;fontSize=24;" parent="1" vertex="1">
          <mxGeometry x="705" y="1110" width="120" height="60" as="geometry" />
        </mxCell>
        <mxCell id="k9zxwndr40Z3x8ybEwwm-71" value="SpringCloud&amp;nbsp;Alibaba&amp;nbsp;Sentinel、SpringCloud&amp;nbsp;Alibaba&amp;nbsp;Nacos" style="rounded=0;whiteSpace=wrap;html=1;fontFamily=Georgia;fontSize=24;" parent="1" vertex="1">
          <mxGeometry x="165" y="1200" width="660" height="60" as="geometry" />
        </mxCell>
        <mxCell id="k9zxwndr40Z3x8ybEwwm-72" value="Mysql&lt;br&gt;数据完整性" style="rounded=0;whiteSpace=wrap;html=1;fontFamily=Georgia;fontSize=24;" parent="1" vertex="1">
          <mxGeometry x="165" y="1340" width="130" height="60" as="geometry" />
        </mxCell>
        <mxCell id="k9zxwndr40Z3x8ybEwwm-73" value="Redis 6.x&lt;br&gt;高效缓存" style="rounded=0;whiteSpace=wrap;html=1;fontFamily=Georgia;fontSize=24;" parent="1" vertex="1">
          <mxGeometry x="320" y="1340" width="130" height="60" as="geometry" />
        </mxCell>
        <mxCell id="k9zxwndr40Z3x8ybEwwm-74" value="ElasticSearch&lt;br&gt;千亿级数据" style="rounded=0;whiteSpace=wrap;html=1;fontFamily=Georgia;fontSize=24;" parent="1" vertex="1">
          <mxGeometry x="667.5" y="1340" width="170" height="60" as="geometry" />
        </mxCell>
        <mxCell id="k9zxwndr40Z3x8ybEwwm-75" value="Ceph&lt;br&gt;分布式文件存储" style="rounded=0;whiteSpace=wrap;html=1;fontFamily=Georgia;fontSize=24;" parent="1" vertex="1">
          <mxGeometry x="470" y="1340" width="170" height="60" as="geometry" />
        </mxCell>
        <mxCell id="k9zxwndr40Z3x8ybEwwm-76" value="Apache&amp;nbsp;Druid千亿日志分析" style="rounded=0;whiteSpace=wrap;html=1;fontFamily=Georgia;fontSize=24;" parent="1" vertex="1">
          <mxGeometry x="50" y="1420" width="170" height="60" as="geometry" />
        </mxCell>
        <mxCell id="k9zxwndr40Z3x8ybEwwm-77" value="Kafka&lt;br&gt;实时日志收集" style="rounded=0;whiteSpace=wrap;html=1;fontFamily=Georgia;fontSize=24;" parent="1" vertex="1">
          <mxGeometry x="252.5" y="1420" width="170" height="60" as="geometry" />
        </mxCell>
        <mxCell id="k9zxwndr40Z3x8ybEwwm-78" value="RocketMQ&lt;br&gt;统一消息处理" style="rounded=0;whiteSpace=wrap;html=1;fontFamily=Georgia;fontSize=24;" parent="1" vertex="1">
          <mxGeometry x="460" y="1420" width="170" height="60" as="geometry" />
        </mxCell>
        <mxCell id="k9zxwndr40Z3x8ybEwwm-79" value="Xxl-job&lt;br&gt;分布式消息处理" style="rounded=0;whiteSpace=wrap;html=1;fontFamily=Georgia;fontSize=24;" parent="1" vertex="1">
          <mxGeometry x="665" y="1420" width="170" height="60" as="geometry" />
        </mxCell>
        <mxCell id="k9zxwndr40Z3x8ybEwwm-80" value="MongoDB&lt;br&gt;购物车永久保存" style="rounded=0;whiteSpace=wrap;html=1;fontFamily=Georgia;fontSize=24;" parent="1" vertex="1">
          <mxGeometry x="50" y="1500" width="170" height="60" as="geometry" />
        </mxCell>
        <mxCell id="k9zxwndr40Z3x8ybEwwm-81" value="....." style="rounded=0;whiteSpace=wrap;html=1;fontFamily=Georgia;fontSize=24;" parent="1" vertex="1">
          <mxGeometry x="252.5" y="1500" width="170" height="60" as="geometry" />
        </mxCell>
        <mxCell id="k9zxwndr40Z3x8ybEwwm-82" value="短信通道" style="rounded=0;whiteSpace=wrap;html=1;fontFamily=Georgia;fontSize=24;" parent="1" vertex="1">
          <mxGeometry x="265" y="1620" width="130" height="60" as="geometry" />
        </mxCell>
        <mxCell id="k9zxwndr40Z3x8ybEwwm-83" value="支付通道" style="rounded=0;whiteSpace=wrap;html=1;fontFamily=Georgia;fontSize=24;" parent="1" vertex="1">
          <mxGeometry x="460" y="1620" width="130" height="60" as="geometry" />
        </mxCell>
        <mxCell id="k9zxwndr40Z3x8ybEwwm-84" value="..." style="rounded=0;whiteSpace=wrap;html=1;fontFamily=Georgia;fontSize=24;" parent="1" vertex="1">
          <mxGeometry x="640" y="1620" width="130" height="60" as="geometry" />
        </mxCell>
        <mxCell id="k9zxwndr40Z3x8ybEwwm-85" value="微信支付,阿里云短信" style="rounded=0;whiteSpace=wrap;html=1;fontFamily=Georgia;fontSize=24;" parent="1" vertex="1">
          <mxGeometry x="177.5" y="1710" width="660" height="60" as="geometry" />
        </mxCell>
      </root>
    </mxGraphModel>
  </diagram>
</mxfile>
